# xmcd
#
# Track frame offsets:
#	150
#	16057
#	31007
#	44502
#	59727
#	74677
#	90457
#	101377
#	114547
#	128757
#
# Disc length: 1888 seconds
#
# Revision: 2
# Processed by: cddbd v1.5.2PL0 Copyright (c) Steve Scherf et al.
# Submitted via: audiograbber 1.83.01
#
DISCID=80075e0a
DTITLE=Tammy Wynette - Heart Over Mind
DYEAR=1990
DGENRE=Country
TTITLE0=Let's Call It A Day Today
TTITLE1=I'm Turning You Loose
TTITLE2=Suddenly Single
TTITLE3=What Goes With Blue
TTITLE4=Just For A Minute Then
TTITLE5=Half The Way Home
TTITLE6=I'm Falling Heart Over Mind
TTITLE7=Where's The Fire
TTITLE8=If You Were The Friend
TTITLE9=One Stone At a Time
EXTD=
EXTT0=
EXTT1=
EXTT2=
EXTT3=
EXTT4=
EXTT5=
EXTT6=
EXTT7=
EXTT8=
EXTT9=
PLAYORDER=
